<svg width="512" height="512" viewBox="0 0 128 128" version="1.1" xmlns="http://www.w3.org/2000/svg">
    <defs>
        <linearGradient id="g" x1="0" y1="0" x2="1" y2="1">
            <stop offset="0%" stop-color="#3b82f6" />
            <stop offset="100%" stop-color="#a855f7" />
        </linearGradient>
    </defs>
    <rect width="128" height="128" rx="32" fill="url(#g)" />
    <path fill-rule="evenodd" d="M64 24 C 41.9086 24 24 41.9086 24 64 C 24 86.0914 41.9086 104 64 104 C 86.0914 104 104 86.0914 104 64 C 104 41.9086 86.0914 24 64 24 Z M64 46 L74 58 L64 70 L54 58 L64 46 Z M48 78 C 51.2 81.2, 56.6 84, 64 84 C 71.4 84, 76.8 81.2, 80 78 H48 Z" fill="white"/>
</svg>
